<svg width="840" height="321" viewBox="0 0 840 321" fill="none" xmlns="http://www.w3.org/2000/svg">
<ellipse cx="125.291" cy="160.499" rx="29.0064" ry="108.774" fill="#06444B"/>
<path d="M154.298 160.499C154.298 220.574 154.298 269.273 154.298 269.273C182.332 269.273 205.059 220.574 205.059 160.499C205.059 100.425 182.332 51.7255 154.298 51.7255C154.298 51.7255 154.298 100.425 154.298 160.499Z" fill="#06444B"/>
<path d="M205.052 160.497C205.052 200.546 205.052 233.013 205.052 233.013C221.072 233.013 234.058 200.546 234.058 160.497C234.058 120.447 221.072 87.9808 205.052 87.9808C205.052 87.9808 205.052 120.447 205.052 160.497Z" fill="#06444B"/>
<ellipse cx="78.1588" cy="160.497" rx="18.129" ry="72.516" fill="#06444B"/>
<path d="M330.199 194.064V148.47H313.101V119.316H330.199V90.3818H366.586V119.316H404.07V148.47H366.586V192.31C366.586 196.11 367.098 199.252 368.121 201.736C369.144 204.074 370.532 205.974 372.285 207.435C374.039 208.896 376.231 209.919 378.861 210.504C381.492 211.088 384.415 211.381 387.629 211.381C390.114 211.381 392.744 211.235 395.521 210.942C398.297 210.65 401.147 210.212 404.07 209.627V239C398.663 239.877 393.621 240.607 388.945 241.192C384.415 241.777 379.957 242.069 375.573 242.069C368.121 242.069 361.545 241.119 355.845 239.219C350.146 237.319 345.397 234.47 341.597 230.67C337.798 226.725 334.948 221.756 333.048 215.765C331.149 209.773 330.199 202.54 330.199 194.064ZM410.255 196.475V119.316H446.862V185.077C446.862 189.607 447.154 193.552 447.738 196.913C448.469 200.275 449.565 203.051 451.026 205.243C452.634 207.435 454.607 209.043 456.945 210.065C459.283 211.088 462.133 211.6 465.494 211.6C468.709 211.6 471.631 211.015 474.262 209.846C477.038 208.677 479.376 206.997 481.276 204.805C483.176 202.613 484.637 199.909 485.66 196.694C486.683 193.333 487.195 189.461 487.195 185.077V119.316H523.582V239H489.825L488.948 217.518C487.487 221.756 485.514 225.41 483.03 228.478C480.692 231.547 477.915 234.105 474.7 236.15C471.485 238.196 467.978 239.658 464.179 240.534C460.379 241.557 456.287 242.069 451.903 242.069C445.62 242.069 439.92 241.046 434.806 239C429.691 236.954 425.307 234.031 421.654 230.232C418 226.286 415.151 221.464 413.105 215.765C411.205 210.065 410.255 203.636 410.255 196.475ZM534.11 239V77.8874H570.498V159.868L613.461 119.316H658.836L608.639 166.664L660.37 239H617.845L582.992 188.145L570.498 199.982V239H534.11ZM645.906 178.939C645.906 169.733 647.441 161.257 650.51 153.512C653.578 145.767 657.889 139.191 663.442 133.784C668.995 128.23 675.718 123.92 683.609 120.851C691.5 117.782 700.341 116.248 710.132 116.248C719.777 116.248 728.545 117.782 736.436 120.851C744.327 123.92 751.05 128.23 756.603 133.784C762.302 139.191 766.686 145.767 769.755 153.512C772.824 161.257 774.358 169.806 774.358 179.158C774.358 188.511 772.824 197.06 769.755 204.805C766.686 212.55 762.302 219.199 756.603 224.752C751.05 230.159 744.327 234.397 736.436 237.466C728.545 240.534 719.777 242.069 710.132 242.069C700.341 242.069 691.5 240.534 683.609 237.466C675.718 234.397 668.995 230.159 663.442 224.752C657.889 219.199 653.578 212.55 650.51 204.805C647.441 197.06 645.906 188.438 645.906 178.939ZM682.732 178.939C682.732 184.2 683.317 188.949 684.486 193.187C685.801 197.279 687.554 200.786 689.746 203.709C692.085 206.631 694.934 208.896 698.295 210.504C701.803 212.111 705.748 212.915 710.132 212.915C714.516 212.915 718.389 212.111 721.75 210.504C725.111 208.896 727.961 206.631 730.299 203.709C732.637 200.786 734.39 197.279 735.559 193.187C736.729 188.949 737.313 184.2 737.313 178.939C737.313 173.97 736.729 169.44 735.559 165.349C734.39 161.111 732.637 157.53 730.299 154.608C727.961 151.539 725.111 149.274 721.75 147.812C718.389 146.205 714.516 145.401 710.132 145.401C705.748 145.401 701.803 146.205 698.295 147.812C694.934 149.274 692.085 151.539 689.746 154.608C687.554 157.53 685.801 161.111 684.486 165.349C683.317 169.44 682.732 173.97 682.732 178.939Z" fill="#06444B"/>
</svg>
